<?xml version="1.0" standalone="no"?>
<!DOCTYPE svg PUBLIC "-//W3C//DTD SVG 20010904//EN"
 "http://www.w3.org/TR/2001/REC-SVG-20010904/DTD/svg10.dtd">
<svg version="1.0" xmlns="http://www.w3.org/2000/svg"
 width="640.000000pt" height="640.000000pt" viewBox="0 0 640.000000 640.000000"
 preserveAspectRatio="xMidYMid meet">

<g transform="translate(0.000000,640.000000) scale(0.100000,-0.100000)"
fill="#000000" stroke="none">
<path d="M0 3200 l0 -3200 3200 0 3200 0 0 3200 0 3200 -3200 0 -3200 0 0
-3200z m3465 2124 c604 -80 1185 -448 1508 -957 142 -222 279 -605 263 -730
-14 -106 -63 -182 -144 -225 -92 -49 -145 -54 -473 -49 -278 4 -299 5 -379 29
-239 71 -411 177 -586 360 -182 191 -310 423 -388 706 -24 85 -52 218 -59 277
-4 41 -11 21 -36 -113 -54 -287 -180 -565 -352 -777 -242 -298 -563 -490
-1009 -605 -47 -12 -92 -24 -100 -27 -8 -3 44 -20 115 -38 263 -67 437 -140
610 -256 403 -271 635 -663 738 -1249 l13 -75 18 100 c106 594 353 990 760
1223 112 65 229 107 380 138 113 24 133 25 405 22 277 -3 288 -4 339 -27 68
-31 136 -105 151 -165 15 -62 14 -100 -8 -213 -110 -555 -542 -1086 -1109
-1360 -213 -103 -446 -172 -697 -204 -113 -15 -410 -6 -555 16 -654 99 -1263
542 -1559 1133 -157 314 -223 599 -224 962 0 345 67 625 228 955 108 220 234
394 412 568 156 153 286 249 478 354 376 206 818 286 1260 227z"/>
</g>
</svg>
