<svg width="640" height="480" viewBox="0 0 640 480" fill="none" xmlns="http://www.w3.org/2000/svg">
  <rect width="640" height="480" rx="32" fill="#0F0D10"/>
  <rect x="72" y="70" width="496" height="300" rx="26" fill="#171518" stroke="rgba(255,255,255,0.12)"/>
  <rect x="104" y="108" width="432" height="34" rx="12" fill="#0F0D10"/>
  <circle cx="128" cy="125" r="6" fill="#F5A623"/>
  <circle cx="150" cy="125" r="6" fill="#FFD889"/>
  <circle cx="172" cy="125" r="6" fill="#8F8B92"/>
  <rect x="108" y="170" width="120" height="164" rx="18" fill="#0F0D10"/>
  <rect x="248" y="170" width="120" height="74" rx="18" fill="url(#paint0_linear_4_2)"/>
  <rect x="388" y="170" width="120" height="74" rx="18" fill="#0F0D10"/>
  <rect x="248" y="260" width="260" height="74" rx="18" fill="#0F0D10"/>
  <rect x="126" y="192" width="72" height="12" rx="6" fill="#FFD889"/>
  <rect x="126" y="218" width="60" height="10" rx="5" fill="#8F8B92"/>
  <rect x="270" y="192" width="64" height="12" rx="6" fill="#0F0D10"/>
  <rect x="410" y="192" width="64" height="12" rx="6" fill="#FFD889"/>
  <rect x="270" y="284" width="88" height="12" rx="6" fill="#FFD889"/>
  <rect x="270" y="308" width="156" height="10" rx="5" fill="#8F8B92"/>
  <defs>
    <linearGradient id="paint0_linear_4_2" x1="248" y1="170" x2="368" y2="244" gradientUnits="userSpaceOnUse">
      <stop stop-color="#FFD889"/>
      <stop offset="1" stop-color="#F5A623"/>
    </linearGradient>
  </defs>
</svg>
